PathFileType  4	(X/Y/Z) /Users/kristensteudel/Documents/NMBL_Research/BertecForceProcessing/anc_files/
DataRate	CameraRate	NumFrames	NumMarkers	Units	OrigDataRate	OrigDataStartFrame	OrigNumFrames
  200.0		  200.0		    8		     46		 mm	  200.0	      539	    718
Frame#	Time	r_knee			r_shank_antsup			r_ankle			r_calc			r_5meta			r_toe			L_knee			L_shank_antsup			L_ankle			L_calc			L_5meta			L_toe			r_sh2			r_sh3			r_sh4			L_sh2			L_sh3			r_thigh1			r_thigh2			r_thigh3			r_thigh4			r_thigh5			L_thigh1			L_thigh2			L_thigh3			L_thigh4			r.ASIS			r.PSIS			L.ASIS			L.PSIS			C7			R_Shoulder			L_Shoulder			Sternum			R_humerus			R_elbow_med			R_elbow_lat			R_forearm			R_wrist_radius			R_wrist_ulna			L_humerus			L_elbow_med			L_elbow_lat			L_forearm			L_wrist_radius			L_wrist_ulna			
		X1	Y1	Z1	X2	Y2	Z2	X3	Y3	Z3	X4	Y4	Z4	X5	Y5	Z5	X6	Y6	Z6	X7	Y7	Z7	X8	Y8	Z8	X9	Y9	Z9	X10	Y10	Z10	X11	Y11	Z11	X12	Y12	Z12	X13	Y13	Z13	X14	Y14	Z14	X15	Y15	Z15	X16	Y16	Z16	X17	Y17	Z17	X18	Y18	Z18	X19	Y19	Z19	X20	Y20	Z20	X21	Y21	Z21	X22	Y22	Z22	X23	Y23	Z23	X24	Y24	Z24	X25	Y25	Z25	X26	Y26	Z26	X27	Y27	Z27	X28	Y28	Z28	X29	Y29	Z29	X30	Y30	Z30	X31	Y31	Z31	X32	Y32	Z32	X33	Y33	Z33	X34	Y34	Z34	X35	Y35	Z35	X36	Y36	Z36	X37	Y37	Z37	X38	Y38	Z38	X39	Y39	Z39	X40	Y40	Z40	X41	Y41	Z41	X42	Y42	Z42	X43	Y43	Z43	X44	Y44	Z44	X45	Y45	Z45	X46	Y46	Z46	

539	2.69000	1099.936	630.398	-162.694	1154.176	524.037	-157.878	1214.398	195.919	-208.180	1148.755	152.236	-273.542	1345.873	146.551	-184.551	1377.587	194.636	-238.394	572.055	571.259	-432.538	469.314	495.640	-434.639	161.162	432.321	-414.213	137.766	502.570	-382.457	83.329	285.260	-374.426	107.951	275.728	-300.674	1184.798	409.320	-170.944	1085.225	502.270	-139.928	1104.235	391.194	-167.826	446.809	578.591	-462.734	331.368	539.456	-445.564	1035.177	852.231	-131.419	1102.597	762.160	-152.667	1087.707	708.594	-137.166	953.820	781.510	-100.209	1022.841	693.576	-137.330	778.698	710.819	-439.656	693.632	601.881	-416.272	688.510	775.024	-483.019	607.009	667.558	-443.616	898.759	1012.822	-156.314	696.967	1075.371	-239.645	899.370	1010.702	-420.851	697.937	1088.268	-352.262	797.971	1553.808	-325.793	783.460	1544.274	-130.443	911.944	1517.913	-481.415	946.488	1463.283	-262.124	619.115	1420.916	-69.222	482.578	1389.223	-161.358	479.318	1423.090	-79.948	567.790	1276.218	-44.623	620.293	1168.313	-42.062	570.589	1157.759	-25.861	878.957	1282.031	-579.131	755.926	1171.192	-558.413	804.752	1214.572	-634.783	941.500	1221.388	-541.062	994.719	1266.163	-446.574	1020.468	1205.982	-475.479
540	2.69500	1092.643	621.075	-163.003	1152.597	519.419	-158.938	1222.881	193.746	-209.341	1158.901	148.322	-275.000	1356.213	148.080	-186.131	1386.848	197.546	-239.669	577.067	569.427	-433.017	471.513	498.202	-435.237	160.387	451.841	-413.339	141.207	523.775	-382.469	74.546	310.039	-372.735	99.386	299.630	-297.622	1186.231	405.441	-172.725	1085.316	495.217	-136.964	1105.855	385.435	-167.982	452.633	582.105	-463.374	336.062	548.641	-446.189	1031.309	843.910	-130.046	1096.112	751.078	-152.660	1080.231	698.186	-135.449	948.333	775.138	-98.914	1014.372	685.288	-136.789	783.233	709.955	-440.098	699.014	600.012	-417.348	691.855	773.273	-482.686	611.511	664.578	-443.968	897.444	1012.474	-155.859	696.351	1074.753	-239.747	899.798	1011.838	-420.234	697.638	1089.098	-352.149	798.698	1554.807	-324.741	783.788	1544.081	-129.153	911.954	1519.045	-480.885	946.577	1463.624	-261.398	619.546	1418.593	-69.412	483.659	1386.560	-162.097	479.972	1420.034	-80.760	569.371	1273.726	-45.594	622.518	1165.693	-43.145	572.767	1154.946	-26.935	877.778	1284.001	-579.804	753.834	1174.125	-558.811	802.693	1217.274	-635.167	939.831	1221.836	-541.171	993.342	1265.238	-446.074	1018.508	1205.166	-475.518
541	2.70000	1085.252	612.392	-163.150	1151.277	515.772	-160.290	1228.614	191.563	-210.307	1165.867	144.897	-276.166	1363.269	148.473	-187.937	1392.761	199.395	-240.793	582.706	567.322	-433.394	474.532	500.661	-435.851	161.569	471.733	-412.575	146.806	544.743	-382.196	67.651	335.104	-369.803	93.025	323.989	-296.258	1186.323	402.386	-174.659	1085.378	490.128	-134.454	1106.651	381.245	-166.105	459.274	586.315	-463.721	341.362	557.976	-446.447	1027.465	834.783	-129.861	1089.048	739.799	-152.637	1072.630	687.710	-133.773	942.851	768.850	-97.508	1005.870	677.220	-136.301	787.401	708.945	-440.163	704.959	597.709	-418.571	695.044	771.357	-482.731	616.238	661.417	-444.381	896.333	1012.311	-155.514	695.642	1073.868	-239.761	900.145	1012.810	-419.637	696.981	1089.298	-351.971	799.606	1555.851	-323.606	784.124	1543.710	-128.002	912.098	1519.912	-480.212	946.792	1463.593	-260.818	620.190	1415.631	-69.464	485.187	1383.026	-162.725	480.856	1416.101	-81.270	571.659	1270.219	-46.635	625.205	1162.764	-43.951	575.451	1151.534	-27.916	876.309	1285.827	-580.461	750.787	1176.947	-559.157	800.408	1219.893	-635.291	937.594	1221.652	-541.319	991.755	1263.499	-445.790	1016.109	1203.523	-475.694
542	2.70500	1078.315	604.366	-162.953	1148.815	512.931	-162.335	1231.564	189.036	-211.271	1169.639	142.014	-277.717	1367.390	146.936	-190.196	1395.623	199.588	-241.922	588.830	564.652	-433.955	478.621	502.579	-436.362	164.812	491.699	-411.854	154.149	565.490	-381.472	64.044	360.212	-370.494	89.174	347.698	-295.880	1185.019	399.946	-175.938	1083.615	486.873	-134.691	1106.046	377.861	-163.467	467.383	588.946	-463.861	348.087	566.639	-446.440	1023.548	825.728	-129.671	1081.320	728.653	-154.280	1065.063	677.641	-132.082	937.067	762.344	-95.602	997.547	669.444	-136.016	791.625	708.115	-441.102	710.978	595.412	-420.286	698.004	769.216	-483.157	620.984	657.847	-445.029	895.598	1012.303	-155.412	694.902	1072.900	-239.704	900.404	1013.518	-418.868	698.887	1084.442	-348.408	800.619	1556.689	-322.194	784.580	1542.994	-126.908	912.488	1520.378	-479.227	947.052	1463.235	-260.357	621.410	1412.515	-69.059	487.088	1378.542	-162.947	482.136	1411.333	-81.635	574.287	1266.042	-47.375	628.571	1158.931	-44.902	578.815	1147.320	-28.831	874.562	1287.423	-581.082	747.598	1179.808	-559.299	797.675	1222.184	-635.297	935.205	1221.029	-541.519	990.060	1261.049	-445.500	1013.495	1201.071	-476.104
543	2.71000	1071.768	597.239	-162.621	1144.656	510.632	-164.522	1231.779	186.150	-212.222	1170.701	139.415	-279.453	1368.344	144.027	-192.114	1396.030	198.003	-242.877	595.668	561.298	-434.722	483.434	504.313	-436.894	170.116	511.655	-410.966	163.291	585.299	-379.853	63.512	384.867	-369.931	87.809	371.153	-294.928	1182.474	397.821	-176.502	1079.477	484.248	-136.948	1103.979	374.661	-163.205	476.583	590.978	-463.924	356.604	574.741	-446.242	1019.344	817.267	-129.531	1074.282	718.374	-154.865	1057.909	668.409	-130.645	931.591	756.628	-94.297	989.638	662.374	-136.104	795.595	707.008	-442.309	717.205	592.657	-422.209	700.826	766.716	-483.490	626.174	653.723	-445.904	894.663	1012.082	-155.305	694.163	1072.036	-239.601	900.549	1013.700	-418.252	701.045	1078.886	-344.687	801.463	1557.096	-321.057	785.400	1541.787	-125.838	912.706	1520.539	-478.360	947.304	1462.452	-260.038	622.879	1408.796	-68.520	489.236	1373.141	-162.881	483.870	1405.870	-81.355	577.400	1260.834	-47.867	632.597	1154.305	-45.179	583.028	1141.912	-29.827	872.695	1288.863	-581.569	744.180	1182.229	-559.237	794.846	1224.426	-635.045	932.296	1219.768	-541.709	988.540	1257.909	-445.321	1010.408	1197.752	-476.638
544	2.71500	1066.124	591.510	-162.350	1138.685	508.067	-165.128	1229.397	182.437	-213.344	1168.732	136.492	-281.579	1366.381	139.481	-193.771	1393.893	194.512	-243.773	603.204	557.027	-435.780	489.169	505.774	-437.416	177.100	530.936	-410.221	173.896	605.296	-378.712	65.495	408.445	-370.339	88.832	393.599	-295.005	1178.241	395.305	-176.238	1073.297	480.553	-139.453	1099.990	370.585	-165.030	486.699	593.073	-464.082	365.792	583.227	-445.029	1014.806	809.994	-129.148	1068.342	709.932	-154.895	1050.714	660.403	-129.704	926.232	751.469	-92.965	982.550	656.682	-135.739	799.594	705.947	-443.423	723.635	589.739	-424.185	703.866	763.876	-484.056	631.396	649.480	-446.407	893.753	1011.647	-155.328	693.285	1071.027	-239.490	900.709	1013.536	-417.688	702.646	1074.050	-341.836	802.467	1557.324	-319.766	786.106	1540.483	-124.600	912.994	1520.524	-477.342	947.549	1461.250	-259.820	624.508	1404.607	-68.107	491.753	1366.973	-162.602	485.784	1399.498	-81.028	580.789	1255.248	-48.133	637.307	1149.230	-45.611	587.459	1136.352	-30.428	870.480	1290.079	-582.072	739.632	1185.142	-559.127	790.955	1226.646	-635.344	929.139	1218.073	-542.073	986.534	1254.100	-445.426	1007.137	1193.758	-477.450
545	2.72000	1060.707	587.227	-162.262	1130.953	503.663	-164.605	1224.216	177.806	-214.558	1164.241	133.342	-284.015	1361.495	133.366	-195.132	1389.632	189.174	-244.283	611.062	553.531	-437.590	495.536	507.538	-432.919	185.941	549.708	-409.256	185.988	623.700	-376.976	69.174	431.901	-371.236	92.075	414.728	-295.873	1171.831	391.471	-176.051	1065.076	475.556	-141.137	1093.792	365.897	-166.725	497.217	594.408	-464.390	376.172	590.822	-444.247	1010.400	803.883	-129.104	1063.509	703.732	-154.107	1044.221	654.268	-129.449	921.046	746.846	-91.856	976.131	652.062	-136.070	803.629	704.477	-444.554	730.363	586.019	-426.789	706.929	760.734	-484.912	637.001	644.503	-447.977	892.860	1010.798	-155.815	692.331	1069.839	-239.307	900.610	1013.090	-417.205	703.725	1069.863	-339.775	803.268	1557.203	-318.454	786.971	1538.677	-123.292	913.183	1520.290	-476.318	947.841	1459.854	-259.658	626.528	1400.120	-65.843	494.607	1360.159	-161.779	488.100	1392.292	-80.106	584.804	1248.893	-47.932	642.375	1143.448	-45.777	592.807	1130.123	-30.679	868.003	1291.141	-582.469	736.859	1187.178	-559.119	787.567	1228.569	-634.815	925.606	1215.921	-542.506	984.452	1249.479	-445.636	1003.334	1189.004	-478.456
546	2.72500	1055.604	583.993	-162.533	1122.539	497.641	-163.136	1216.704	172.205	-215.840	1157.342	129.625	-287.226	1353.734	125.731	-196.395	1382.635	181.851	-243.956	619.058	548.341	-439.263	504.808	504.265	-433.434	196.387	567.996	-408.475	199.552	641.330	-374.604	75.428	453.681	-372.088	97.382	434.516	-297.593	1163.855	386.118	-175.846	1056.186	469.216	-142.309	1085.681	360.173	-169.269	508.782	595.537	-464.513	387.162	598.194	-443.565	1005.991	799.768	-129.141	1058.717	699.121	-152.951	1038.296	649.684	-129.714	916.387	743.579	-91.108	970.308	648.587	-136.849	807.960	702.823	-445.676	737.223	582.673	-428.216	709.743	757.171	-485.478	642.758	638.952	-449.070	891.794	1010.558	-155.793	691.375	1068.717	-239.117	900.355	1012.370	-416.720	704.318	1066.249	-338.425	804.599	1556.355	-317.726	788.024	1536.360	-121.773	913.463	1519.759	-475.090	948.227	1458.131	-259.548	628.871	1394.827	-64.827	497.668	1352.612	-160.854	490.586	1384.807	-79.175	589.251	1241.660	-46.800	648.088	1137.299	-45.920	598.637	1123.294	-30.819	865.277	1291.944	-582.852	731.361	1189.421	-559.111	783.251	1230.350	-634.648	921.756	1213.345	-543.100	982.181	1244.361	-446.051	999.142	1183.744	-479.650
